<mxfile host="app.diagrams.net" modified="2024-06-13T09:21:37.292Z" agent="Mozilla/5.0 (Macintosh; Intel Mac OS X 10_15_7) AppleWebKit/605.1.15 (KHTML, like Gecko) Version/17.4.1 Safari/605.1.15" version="24.5.2" etag="tlZrEz5z3Hz294zm7gAg" type="github">
  <diagram name="Page-1" id="O2_kMzep9FxadMbzfBZj">
    <mxGraphModel>
      <root>
        <mxCell id="0" />
        <mxCell id="1" parent="0" />
      </root>
    </mxGraphModel>
  </diagram>
</mxfile>
